<svg width="15" height="15" viewBox="0 0 15 15" fill="current" xmlns="http://www.w3.org/2000/svg">
<path d="M3.75 1.5C3.75 1.10218 3.90804 0.720644 4.18934 0.43934C4.47064 0.158035 4.85218 0 5.25 0H9.75C10.1478 0 10.5294 0.158035 10.8107 0.43934C11.092 0.720644 11.25 1.10218 11.25 1.5V3H14.25C14.4489 3 14.6397 3.07902 14.7803 3.21967C14.921 3.36032 15 3.55109 15 3.75C15 3.94891 14.921 4.13968 14.7803 4.28033C14.6397 4.42098 14.4489 4.5 14.25 4.5H13.4483L12.798 13.6065C12.7711 13.9849 12.6017 14.3391 12.3241 14.5977C12.0465 14.8563 11.6811 15 11.3018 15H3.6975C3.3181 15 2.9528 14.8563 2.67516 14.5977C2.39753 14.3391 2.22819 13.9849 2.20125 13.6065L1.5525 4.5H0.75C0.551088 4.5 0.360322 4.42098 0.21967 4.28033C0.0790176 4.13968 0 3.94891 0 3.75C0 3.55109 0.0790176 3.36032 0.21967 3.21967C0.360322 3.07902 0.551088 3 0.75 3H3.75V1.5ZM5.25 3H9.75V1.5H5.25V3ZM3.0555 4.5L3.69825 13.5H11.3025L11.9453 4.5H3.0555ZM6 6C6.19891 6 6.38968 6.07902 6.53033 6.21967C6.67098 6.36032 6.75 6.55109 6.75 6.75V11.25C6.75 11.4489 6.67098 11.6397 6.53033 11.7803C6.38968 11.921 6.19891 12 6 12C5.80109 12 5.61032 11.921 5.46967 11.7803C5.32902 11.6397 5.25 11.4489 5.25 11.25V6.75C5.25 6.55109 5.32902 6.36032 5.46967 6.21967C5.61032 6.07902 5.80109 6 6 6ZM9 6C9.19891 6 9.38968 6.07902 9.53033 6.21967C9.67098 6.36032 9.75 6.55109 9.75 6.75V11.25C9.75 11.4489 9.67098 11.6397 9.53033 11.7803C9.38968 11.921 9.19891 12 9 12C8.80109 12 8.61032 11.921 8.46967 11.7803C8.32902 11.6397 8.25 11.4489 8.25 11.25V6.75C8.25 6.55109 8.32902 6.36032 8.46967 6.21967C8.61032 6.07902 8.80109 6 9 6Z" />
</svg>
