<svg width="15" height="15" viewBox="0 0 15 15" fill="current" xmlns="http://www.w3.org/2000/svg">
<path d="M13.7327 3.47186L10.5912 0.329596C10.4867 0.225103 10.3627 0.142213 10.2262 0.0856601C10.0897 0.0291075 9.94335 0 9.79559 0C9.64783 0 9.50152 0.0291075 9.36501 0.0856601C9.22851 0.142213 9.10447 0.225103 9.00001 0.329596L0.329771 9.00053C0.224851 9.10462 0.141667 9.22853 0.0850551 9.36505C0.0284434 9.50157 -0.000466481 9.64798 5.69176e-06 9.79577V12.938C5.69176e-06 13.2364 0.118532 13.5225 0.329511 13.7335C0.540489 13.9445 0.826637 14.063 1.12501 14.063H4.26727C4.41506 14.0635 4.56147 14.0346 4.69799 13.978C4.83451 13.9214 4.95842 13.8382 5.06251 13.7333L13.7327 5.06303C13.8372 4.95856 13.9201 4.83453 13.9767 4.69803C14.0332 4.56152 14.0623 4.41521 14.0623 4.26745C14.0623 4.11969 14.0332 3.97338 13.9767 3.83687C13.9201 3.70036 13.8372 3.57633 13.7327 3.47186ZM1.35774 9.56303L7.31251 3.60827L8.48602 4.78178L2.53126 10.7358L1.35774 9.56303ZM1.12501 10.9208L3.14227 12.938H1.12501V10.9208ZM4.50001 12.7053L3.32649 11.5318L9.28126 5.57702L10.4548 6.75053L4.50001 12.7053ZM11.25 5.9553L8.10774 2.81303L9.79524 1.12553L12.9375 4.2671L11.25 5.9553Z" />
</svg>
