<svg xmlns="http://www.w3.org/2000/svg" width="25" height="18" fill="none"><path fill="#AC5811" d="m3.95 5.617-.552.568 3.427 3.21s7.826-1.788 7.826-1.855c0-.068.034-1.272.034-1.272s-.104-.138-.173-.21c-.069-.074-.434-.4-.434-.4L3.95 5.618Z"/><path fill="#8A460A" d="m5.52 4.128.192 1.118 5.936.629 2.06-1.467-3.63-.664-4.558.384Z"/><path fill="#E17F13" d="M4.592 6.078s-.896-.195-1.229-.616c-.197-.249-.208-.609-.03-.936.245-.446.93-.656 1.237-.719.306-.063 1.912-.613 4.734-.529 2.823.085 5.624.71 5.57 1.702-.053.993-1.205.983-1.205.983l-.168-1.702-1.536.017s-1.678-.184-2.818-.228c-1.332-.049-2.295.073-2.295.073l-1.86.328-.4 1.627Z"/><path fill="#AE5614" d="m9.793 5.357 3.171-3.235s-.045-.47.011-.708c.096-.402.539-.941.92-.909.381.033 1.448 1.173 1.395 1.48-.053.306-.37.666-.688.782-.316.116-.644.084-.644.084l-2.643 2.644-1.522-.138Z"/><path fill="#DF8116" d="M13.324 2.082c.234.055.772-.402.835-.508.063-.105-.159-.264-.232-.444-.073-.18-.075-.328-.222-.295-.148.032-.401.309-.466.538-.095.34-.053.678.085.709Z"/><path fill="#E07F14" d="M3.427 6.14s-1.128 1.18-1.06 2.89c.068 1.708.768 3.726 1.332 4.768.564 1.042 1.35 2.546 1.658 2.752.308.205 1.222.817 3.367.855 2.534.045 3.72-.564 4.01-.82.29-.256 1.014-1.35 1.68-3.06.668-1.71 1.146-3.197 1.129-4.786-.017-1.589-.862-2.469-.862-2.469s-2.138 1.2-5.743 1.114C5.332 7.298 3.427 6.14 3.427 6.14Z"/><path fill="#AC5811" d="M8.865 15.837c3.333.06 4.935-.89 4.935-.89s.33-.72.529-1.192c.205-.494.478-1.268.478-1.268S13.512 13.65 8.86 13.67c-3.73.015-5.77-1.259-5.77-1.259s.335.878.621 1.422c.405.768.666 1.22.666 1.22s1.65.736 4.488.785Z"/><path fill="#FFB803" d="M7.1 4.007c.03-.243-.103-1.073-1.766-.976-1.792.104-1.658 1.5-1.572 1.768.21.664.593.85.615 1.198.024.349-.267 1.163-.326 2.583-.059 1.42.08 2.083.128 2.28.09.368.36.605.651.419.291-.186.152-.733.117-1.059-.035-.326-.007-1.806.098-2.364.105-.558.232-.917.57-.823.337.095.23.57.205.965-.024.395-.035 1.152.012 1.525.046.372.241.599.555.58.42-.024.515-.36.537-.918.024-.558-.011-.942.082-1.49.093-.546.36-.825.57-.93.209-.104.686-.186 1.407-.163.721.022 1.29.07 1.512.384.22.313.29 1.07.697 1.372.408.303.872 0 1.024.326.152.327.245 1.094.256 1.99.011.896-.093 2.059-.163 2.56-.07.5-.242 1.209-.011 1.57.178.279.569.221.743-.128.175-.348.28-1.116.36-2 .082-.885.117-3.677.152-4.014.035-.338.284-1.098.64-2.21.387-1.211.827-2.187-.072-2.734-.48-.293-.779-.25-.779-.25l-.879.881s.501.082.497.274c-.006.335-2.14.633-3.607.657-1.467.024-3.507-.262-3.507-.634 0-.373 1.195-.162 1.254-.639Z"/><path fill="#fff" d="M13.157 3.935c-.11.23.138.275.168.448.028.173-.07.443.046.471.115.029.586-.132.482-.632-.104-.501-.624-.44-.696-.287Zm-2.053 2.781c-.145.035-.14.481.063.886.224.449.592.454.678.305.086-.149-.149-.305-.305-.58-.23-.41-.292-.644-.436-.61ZM5.603 5.233c-.113.187.126.488.765.672.638.184.972.058.988-.179.015-.192-.534-.236-.873-.333-.34-.097-.725-.42-.88-.16Zm-.506-1.944c-.173-.095-.777-.046-.84.488-.05.414.478 1.062.788.868.184-.115-.138-.449-.047-.724.075-.221.34-.5.099-.632Z"/><path fill="#FFFCFF" d="M6.096 9.078c-.182.032-.158.408-.117.544.04.136.128.356.342.3.163-.041.142-.31.107-.467-.037-.16-.13-.414-.332-.377Zm-1.68 1.353c-.18.024-.175.206-.122.431.038.162.166.348.32.307.153-.04.122-.25.077-.404-.04-.133-.087-.36-.276-.334Z"/><path fill="#fff" d="M12.593 13.774c-.191.01-.177.253-.184.493-.007.24-.011.417.163.417.176 0 .167-.32.171-.467.005-.148.054-.453-.15-.443Z"/></svg>