<svg width="36" height="36" viewBox="0 0 36 36" fill="none" xmlns="http://www.w3.org/2000/svg">
<g clip-path="url(#clip0_1473_372)">
<path d="M28 30H6V8H19.22L21.22 6H6C5.46957 6 4.96086 6.21071 4.58579 6.58579C4.21071 6.96086 4 7.46957 4 8V30C4 30.5304 4.21071 31.0391 4.58579 31.4142C4.96086 31.7893 5.46957 32 6 32H28C28.5304 32 29.0391 31.7893 29.4142 31.4142C29.7893 31.0391 30 30.5304 30 30V15L28 17V30Z" fill="#3A3939"/>
<path d="M33.5295 5.83921L30.1595 2.46921C30.0099 2.31924 29.8322 2.20026 29.6366 2.11907C29.441 2.03788 29.2313 1.99609 29.0195 1.99609C28.8077 1.99609 28.598 2.03788 28.4023 2.11907C28.2067 2.20026 28.029 2.31924 27.8795 2.46921L14.1695 16.2592L13.0595 21.0692C13.0122 21.3024 13.0172 21.5431 13.074 21.7741C13.1309 22.0051 13.2383 22.2207 13.3884 22.4052C13.5385 22.5898 13.7277 22.7388 13.9423 22.8415C14.1569 22.9442 14.3916 22.998 14.6295 22.9992C14.7524 23.0128 14.8765 23.0128 14.9995 22.9992L19.8495 21.9292L33.5295 8.11921C33.6794 7.96965 33.7984 7.79197 33.8796 7.59635C33.9608 7.40073 34.0026 7.19101 34.0026 6.97921C34.0026 6.76741 33.9608 6.55769 33.8796 6.36207C33.7984 6.16645 33.6794 5.98877 33.5295 5.83921ZM18.8095 20.0792L15.1495 20.8892L15.9995 17.2592L26.3195 6.86921L29.1395 9.68921L18.8095 20.0792ZM30.2695 8.55921L27.4495 5.73921L28.9995 4.15921L31.8395 6.99921L30.2695 8.55921Z" fill="#3A3939"/>
</g>
<defs>
<clipPath id="clip0_1473_372">
<rect width="36" height="36" fill="white"/>
</clipPath>
</defs>
</svg>
