<svg width="39" height="39" viewBox="0 0 39 39" fill="none" xmlns="http://www.w3.org/2000/svg">
<path d="M13.4062 14.625C13.4062 14.3018 13.5347 13.9918 13.7632 13.7632C13.9918 13.5347 14.3018 13.4062 14.625 13.4062H24.375C24.6982 13.4062 25.0082 13.5347 25.2368 13.7632C25.4653 13.9918 25.5937 14.3018 25.5937 14.625C25.5937 14.9482 25.4653 15.2582 25.2368 15.4868C25.0082 15.7153 24.6982 15.8437 24.375 15.8437H14.625C14.3018 15.8437 13.9918 15.7153 13.7632 15.4868C13.5347 15.2582 13.4062 14.9482 13.4062 14.625ZM14.625 20.7187H24.375C24.6982 20.7187 25.0082 20.5903 25.2368 20.3618C25.4653 20.1332 25.5937 19.8232 25.5937 19.5C25.5937 19.1768 25.4653 18.8668 25.2368 18.6382C25.0082 18.4097 24.6982 18.2812 24.375 18.2812H14.625C14.3018 18.2812 13.9918 18.4097 13.7632 18.6382C13.5347 18.8668 13.4062 19.1768 13.4062 19.5C13.4062 19.8232 13.5347 20.1332 13.7632 20.3618C13.9918 20.5903 14.3018 20.7187 14.625 20.7187ZM19.5 23.1562H14.625C14.3018 23.1562 13.9918 23.2847 13.7632 23.5132C13.5347 23.7418 13.4062 24.0518 13.4062 24.375C13.4062 24.6982 13.5347 25.0082 13.7632 25.2368C13.9918 25.4653 14.3018 25.5937 14.625 25.5937H19.5C19.8232 25.5937 20.1332 25.4653 20.3618 25.2368C20.5903 25.0082 20.7187 24.6982 20.7187 24.375C20.7187 24.0518 20.5903 23.7418 20.3618 23.5132C20.1332 23.2847 19.8232 23.1562 19.5 23.1562ZM34.125 7.3125V23.8707C34.126 24.191 34.0634 24.5082 33.9407 24.804C33.8181 25.0998 33.6378 25.3682 33.4105 25.5937L25.5937 33.4105C25.3682 33.6378 25.0998 33.8181 24.804 33.9407C24.5082 34.0634 24.191 34.126 23.8707 34.125H7.3125C6.66603 34.125 6.04605 33.8682 5.58893 33.4111C5.13181 32.9539 4.875 32.334 4.875 31.6875V7.3125C4.875 6.66603 5.13181 6.04605 5.58893 5.58893C6.04605 5.13181 6.66603 4.875 7.3125 4.875H31.6875C32.334 4.875 32.9539 5.13181 33.4111 5.58893C33.8682 6.04605 34.125 6.66603 34.125 7.3125ZM7.3125 31.6875H23.1562V24.375C23.1562 24.0518 23.2847 23.7418 23.5132 23.5132C23.7418 23.2847 24.0518 23.1562 24.375 23.1562H31.6875V7.3125H7.3125V31.6875ZM25.5937 25.5937V29.966L29.9645 25.5937H25.5937Z" fill="#3A3939"/>
</svg>
