<svg xmlns="http://www.w3.org/2000/svg" width="25" height="18" fill="none" style="position: relative; top: 2px;" ><path fill="#555" d="M2 6.012c0-.889 0-1.492.038-1.958.035-.454.1-.687.18-.85l-1.782-.94C.189 2.766.09 3.302.044 3.884 0 4.455 0 5.159 0 6.013h2Zm0 2.28v-2.28H0v2.28h2Zm-2 0v5.182h2V8.292H0Zm0 5.182v3.02h2v-3.02H0Zm0 3.02c0 1.339 1.562 2.01 2.475 1.063l-1.414-1.465a.533.533 0 0 1 .6-.124c.1.043.186.116.246.21.06.094.093.204.093.317H0Zm2.475 1.063 2.94-3.046L4 13.045l-2.939 3.046 1.414 1.466Zm9.725-5.12H5.414v2.074H12.2v-2.073Zm2.708-.225c-.156.083-.38.15-.819.187-.45.038-1.032.039-1.889.039v2.073c.824 0 1.501 0 2.052-.046.562-.047 1.079-.15 1.564-.406l-.908-1.847Zm.874-.906c-.192.39-.498.707-.874.906l.908 1.847a4.076 4.076 0 0 0 1.748-1.812l-1.782-.941ZM16 8.499c0 .888 0 1.492-.038 1.958-.035.454-.1.687-.18.849l1.782.941c.247-.502.346-1.038.392-1.62.045-.571.044-1.274.044-2.128h-2Zm0-2.487v2.487h2V6.012h-2Zm-.218-2.807c.08.162.145.394.18.849C16 4.52 16 5.124 16 6.012h2c0-.854 0-1.556-.044-2.127-.046-.583-.145-1.119-.392-1.621l-1.782.94Zm-.874-.906c.376.199.682.516.874.906l1.782-.941A4.076 4.076 0 0 0 15.816.452l-.908 1.847ZM12.2 2.073c.857 0 1.439 0 1.889.04.438.036.663.103.819.186l.908-1.847c-.485-.256-1.002-.359-1.564-.406C13.702 0 13.024 0 12.2 0v2.073Zm-6.4 0h6.4V0H5.8v2.073Zm-2.708.226c.156-.083.38-.15.819-.187.45-.039 1.032-.039 1.889-.039V0c-.824 0-1.501 0-2.052.046-.562.047-1.079.15-1.564.406l.908 1.847Zm-.874.906c.192-.39.498-.707.874-.906L2.184.452A4.076 4.076 0 0 0 .436 2.264l1.782.94ZM5.414 14.51v-2.073c-.53 0-1.039.218-1.414.607l1.414 1.466Z"/><path stroke="#B2B2B2" stroke-linecap="round" stroke-linejoin="round" stroke-width="2" d="M5 5.182h8M5 9.328h5"/></svg>