<svg width="26" height="26" viewBox="0 0 26 26" fill="none" xmlns="http://www.w3.org/2000/svg">
<g clip-path="url(#clip0_1640_2)">
<path d="M12.1928 3.20281C12.3157 2.99194 12.4917 2.81697 12.7033 2.69537C12.9149 2.57376 13.1547 2.50977 13.3988 2.50977C13.6428 2.50977 13.8826 2.57376 14.0942 2.69537C14.3059 2.81697 14.4819 2.99194 14.6048 3.20281L17.7259 8.56058L23.7871 9.87378C24.0255 9.92558 24.2462 10.039 24.4272 10.2027C24.6081 10.3664 24.743 10.5746 24.8183 10.8067C24.8937 11.0387 24.9069 11.2865 24.8566 11.5252C24.8064 11.764 24.6944 11.9854 24.5319 12.1674L20.4003 16.7915L21.0256 22.9611C21.0503 23.204 21.0108 23.4492 20.9111 23.6721C20.8114 23.895 20.6549 24.0878 20.4574 24.2314C20.2598 24.3749 20.0281 24.4641 19.7853 24.4901C19.5425 24.516 19.2971 24.4778 19.0737 24.3793L13.3988 21.8779L7.72387 24.3793C7.50045 24.4778 7.25509 24.516 7.01228 24.4901C6.76948 24.4641 6.53773 24.3749 6.34018 24.2314C6.14263 24.0878 5.98619 23.895 5.88648 23.6721C5.78676 23.4492 5.74727 23.204 5.77194 22.9611L6.39727 16.7915L2.26561 12.1685C2.10283 11.9865 1.99064 11.765 1.94023 11.5261C1.88982 11.2872 1.90296 11.0393 1.97834 10.807C2.05372 10.5748 2.1887 10.3664 2.3698 10.2026C2.5509 10.0389 2.7718 9.92548 3.01042 9.87378L9.07169 8.56058L12.1928 3.20281Z" fill="#FFD233"/>
</g>
<defs>
<clipPath id="clip0_1640_2">
<rect width="26.8" height="26.8" fill="white"/>
</clipPath>
</defs>
</svg>
