<svg width="23" height="22" viewBox="0 0 23 22" fill="none" xmlns="http://www.w3.org/2000/svg">
<path d="M10.2826 0.693043C10.4055 0.482171 10.5815 0.307205 10.7931 0.1856C11.0048 0.0639946 11.2446 0 11.4886 0C11.7327 0 11.9725 0.0639946 12.1841 0.1856C12.3957 0.307205 12.5717 0.482171 12.6946 0.693043L15.8157 6.05081L21.877 7.36401C22.1154 7.41582 22.3361 7.52922 22.517 7.6929C22.6979 7.85659 22.8328 8.06484 22.9082 8.2969C22.9835 8.52896 22.9967 8.77671 22.9465 9.01547C22.8962 9.25423 22.7843 9.47564 22.6218 9.65764L18.4901 14.2818L19.1154 20.4513C19.1401 20.6943 19.1006 20.9394 19.0009 21.1623C18.9012 21.3852 18.7448 21.5781 18.5472 21.7216C18.3497 21.8651 18.1179 21.9543 17.8751 21.9803C17.6323 22.0062 17.3869 21.968 17.1635 21.8695L11.4886 19.3682L5.81372 21.8695C5.59029 21.968 5.34493 22.0062 5.10213 21.9803C4.85932 21.9543 4.62758 21.8651 4.43002 21.7216C4.23247 21.5781 4.07603 21.3852 3.97632 21.1623C3.87661 20.9394 3.83712 20.6943 3.86179 20.4513L4.48712 14.2818L0.355452 9.65876C0.192673 9.47677 0.0804789 9.25527 0.0300707 9.01636C-0.0203375 8.77746 -0.00719632 8.52951 0.0681823 8.29727C0.143561 8.06503 0.27854 7.85663 0.459644 7.69287C0.640747 7.5291 0.86164 7.41571 1.10027 7.36401L7.16153 6.05081L10.2826 0.693043Z" fill="#EAEAEA"/>
</svg>
